<?xml version="1.0" encoding="utf-8"?>
<!-- Generator: Adobe Illustrator 23.0.6, SVG Export Plug-In . SVG Version: 6.00 Build 0)  -->
<svg version="1.1" id="visual" xmlns="http://www.w3.org/2000/svg" xmlns:xlink="http://www.w3.org/1999/xlink" x="0px" y="0px"
	 viewBox="0 0 675 900" style="enable-background:new 0 0 675 900;" xml:space="preserve">
<style type="text/css">
	.st0{fill:#A48CEE;}
	.st1{fill:#8354EE;}
	.st2{fill:#6200EE;}
</style>
<path class="st0" d="M0,643l37.5,20.3C75,683.7,150,724.3,225,714.8s150-69.1,225-76C525,632,600,678,637.5,701l37.5,23v177h-37.5
	c-37.5,0-112.5,0-187.5,0s-150,0-225,0s-150,0-187.5,0H0V643z"/>
<path class="st1" d="M0,852l37.5-12.8C75,826.3,150,800.7,225,772.3c75-28.3,150-59.3,225-53c75,6.4,150,50,187.5,71.9L675,813v88
	h-37.5c-37.5,0-112.5,0-187.5,0s-150,0-225,0s-150,0-187.5,0H0V852z"/>
<path class="st2" d="M0,777l37.5,17C75,811,150,845,225,860.2c75,15.1,150,11.5,225,14.3s150,12.2,187.5,16.8L675,896v5h-37.5
	c-37.5,0-112.5,0-187.5,0s-150,0-225,0s-150,0-187.5,0H0V777z"/>
</svg>
