<svg id="visual" viewBox="0 0 675 900" width="675" height="900" xmlns="http://www.w3.org/2000/svg" xmlns:xlink="http://www.w3.org/1999/xlink" version="1.1"><path d="M0 643L37.5 663.3C75 683.7 150 724.3 225 714.8C300 705.3 375 645.7 450 638.8C525 632 600 678 637.5 701L675 724L675 901L637.5 901C600 901 525 901 450 901C375 901 300 901 225 901C150 901 75 901 37.5 901L0 901Z" fill="#184f8a"></path><path d="M0 852L37.5 839.2C75 826.3 150 800.7 225 772.3C300 744 375 713 450 719.3C525 725.7 600 769.3 637.5 791.2L675 813L675 901L637.5 901C600 901 525 901 450 901C375 901 300 901 225 901C150 901 75 901 37.5 901L0 901Z" fill="#012c56"></path><path d="M0 777L37.5 794C75 811 150 845 225 860.2C300 875.3 375 871.7 450 874.5C525 877.3 600 886.7 637.5 891.3L675 896L675 901L637.5 901C600 901 525 901 450 901C375 901 300 901 225 901C150 901 75 901 37.5 901L0 901Z" fill="#012240"></path></svg>