<svg id="visual" viewBox="0 0 675 900" width="675" height="900" xmlns="http://www.w3.org/2000/svg" xmlns:xlink="http://www.w3.org/1999/xlink" version="1.1"><rect x="0" y="0" width="675" height="900" fill="#ffffff"></rect><path d="M0 561L37.5 562.8C75 564.7 150 568.3 225 591.5C300 614.7 375 657.3 450 664.7C525 672 600 644 637.5 630L675 616L675 901L637.5 901C600 901 525 901 450 901C375 901 300 901 225 901C150 901 75 901 37.5 901L0 901Z" fill="#184f8a"></path><path d="M0 706L37.5 707.5C75 709 150 712 225 714.2C300 716.3 375 717.7 450 704.3C525 691 600 663 637.5 649L675 635L675 901L637.5 901C600 901 525 901 450 901C375 901 300 901 225 901C150 901 75 901 37.5 901L0 901Z" fill="#012c56"></path><path d="M0 810L37.5 801.5C75 793 150 776 225 769.7C300 763.3 375 767.7 450 781.7C525 795.7 600 819.3 637.5 831.2L675 843L675 901L637.5 901C600 901 525 901 450 901C375 901 300 901 225 901C150 901 75 901 37.5 901L0 901Z" fill="#012240"></path></svg>